<svg width="36" height="36" viewBox="0 0 36 36" fill="none" xmlns="http://www.w3.org/2000/svg">
<rect width="36" height="36" rx="10" fill="#EA4C89" fill-opacity="0.1"/>
<path d="M25.9803 16.5468C25.5123 16.6946 25.0197 16.7931 24.5271 16.7931C22.2118 16.7685 20.3399 14.8966 20.3153 12.5813C20.3153 12.1379 20.3892 11.6946 20.537 11.2759C19.9951 10.6847 19.6995 9.92118 19.6995 9.13301C19.6995 8.81281 19.7488 8.49261 19.8473 8.17241C19.2315 8.07389 18.6158 8 18 8C12.4828 8 8 12.4828 8 18C8 23.5172 12.4828 28 18 28C23.5172 28 28 23.5172 28 18C28 17.7783 28 17.5567 27.9754 17.335C27.2611 17.2611 26.5468 16.9901 25.9803 16.5468ZM12.5813 15.3153C14.3054 15.3153 14.3054 18.0246 12.5813 18.0246C10.8571 18.0246 10.6108 15.3153 12.5813 15.3153ZM14.0591 23.7635C12.0887 23.7635 12.0887 20.8079 14.0591 20.8079C16.0296 20.8079 16.0296 23.7635 14.0591 23.7635ZM17.0148 9.33005C18.7389 9.33005 18.7389 12.2857 17.0148 12.2857C15.2906 12.2857 15.0443 9.33005 17.0148 9.33005ZM18.2463 16.8424C19.7241 16.8424 19.7241 18.8128 18.2463 18.8128C16.7685 18.8128 17.0148 16.8424 18.2463 16.8424ZM19.9704 24.9458C18.4926 24.9458 18.4926 22.9754 19.9704 22.9754C21.4483 22.9754 21.202 24.9458 19.9704 24.9458ZM24.6503 21.1034C23.4187 21.1034 23.4187 19.133 24.6503 19.133C25.8818 19.133 25.8818 21.1034 24.6503 21.1034Z" fill="#EA4C89"/>
</svg>
